<?xml version="1.0" encoding="UTF-8" standalone="no"?>
<svg width="54px" height="73px" viewBox="0 0 54 73" version="1.1" xmlns="http://www.w3.org/2000/svg" xmlns:xlink="http://www.w3.org/1999/xlink">
    <!-- Generator: Sketch 3.6.1 (26313) - http://www.bohemiancoding.com/sketch -->
    <title>Slice 1</title>
    <desc>Created with Sketch.</desc>
    <defs></defs>
    <g id="Page-1" stroke="none" stroke-width="1" fill="none" fill-rule="evenodd">
        <g id="me">
            <g id="group">
                <g id="page1">
                    <g id="layer_1">
                        <g id="layer_1_1_">
                            <path d="M17.2883933,44.7274683 C20.2650974,45.6753324 20.8491343,50.5955259 18.5910378,55.7194873 C16.3356327,60.8434487 12.0912724,64.2296591 9.11725971,63.2817949 C6.14055558,62.3339307 5.55651869,57.4114477 7.81461523,52.2897759 C10.0700203,47.1658145 14.3143806,43.7796041 17.2883933,44.7274683 L17.2883933,44.7274683 Z" id="bezier2" fill="#F5D3C1"></path>
                            <path d="M10.6700237,69.1645727 L46.265184,69.1645727 L45.833184,64.0526841 L10.8860237,64.0526841 L10.6700237,69.1645727 Z" id="bezier" fill="#4A4A4A"></path>
                            <path d="M9.1116,62.0621912 C8.543088,61.6829356 8.522784,60.1761631 9.033768,58.5839727 C8.97624,58.713808 8.922096,58.84706 8.871336,58.9837287 C8.21484,60.7194212 8.184384,62.4619472 8.803656,62.87537 C9.426312,63.2887929 10.455048,62.2159435 11.111544,60.480251 C11.162304,60.3401656 11.20968,60.2034969 11.253672,60.0668282 C10.60056,61.5633505 9.680112,62.4414469 9.1116,62.0621912 L9.1116,62.0621912 L9.1116,62.0621912 Z" id="bezier3" fill-opacity="0.3" fill="#1A1718" transform="translate(9.806024, 60.773973) rotate(-20.000000) translate(-9.806024, -60.773973) "></path>
                            <path d="M38.944032,45.577899 C35.8467996,46.4971352 35.2391148,51.268726 37.5886428,56.2379305 C39.9353704,61.2071349 44.351587,64.491073 47.446019,63.5718368 C50.5432514,62.6526006 51.1509362,57.8787893 48.8014082,52.9118053 C46.4546806,47.9426008 42.038464,44.6586628 38.944032,45.577899 L38.944032,45.577899 Z" id="bezier4" fill="#F5D3C1"></path>
                            <path d="M46.4593281,62.6879971 C45.7213998,62.6879971 45.1166145,61.5861657 45.0240914,60.1572967 C45.0150648,60.2802102 45.0105515,60.4053185 45.0105515,60.5326218 C45.0105515,62.1392763 45.6582133,63.4408421 46.4570714,63.4408421 C47.2559295,63.4408421 47.905848,62.1392763 47.905848,60.5326218 C47.905848,60.4053185 47.899078,60.2802102 47.8900514,60.1572967 C47.7997849,61.5839708 47.192743,62.6879971 46.4593281,62.6879971 L46.4593281,62.6879971 L46.4593281,62.6879971 Z" id="bezier5" fill-opacity="0.3" fill="#1A1718"></path>
                            <path d="M41.0985997,42.1417269 L38.8965351,41.7386251 L37.7924863,41.5174523 C37.7924863,41.5174523 31.7558902,41.0829285 28.4135922,41.0829285 C24.9249297,41.0829285 17.9476047,41.9519761 17.9476047,41.9519761 L16.7247988,41.806726 L13.8757398,42.1417269 L9.451584,47.9541146 L14.6673103,50.5167491 L10.7405453,64.1686466 L45.9246734,64.1686466 L42.1084222,50.5705449 L46.6097522,47.7095884 L41.0985997,42.1417269 Z" id="bezier6" fill="#6699FF"></path>
                            <path d="M26.87544,51.6558246 C30.272976,51.6558246 33.027552,49.5734035 33.027552,47.0043158 C33.027552,44.4352281 30.272976,42.352807 26.87544,42.352807 C23.481288,42.352807 20.726712,44.4352281 20.726712,47.0043158 C20.726712,49.5734035 23.481288,51.6558246 26.87544,51.6558246 L26.87544,51.6558246 Z" id="bezier7" fill="#FFFFFF"></path>
                            <path d="M26.865288,50.8182456 C29.657088,50.8182456 31.9176,49.2199298 31.9176,47.2502105 C31.9176,45.2804912 29.657088,43.6847368 26.865288,43.6847368 C24.073488,43.6847368 21.812976,45.2804912 21.812976,47.2502105 C21.812976,49.2199298 24.073488,50.8182456 26.865288,50.8182456 L26.865288,50.8182456 Z" id="bezier8" fill="#D9BAAC"></path>
                            <path d="M10.6313565,24.4860181 C10.6313565,22.5585818 9.79502714,20.6454508 8.51280287,19.7758079 C7.91831004,19.3726051 7.20276074,19.3783478 6.47568225,19.3783478 C5.53908692,19.3783478 4.66602738,19.92576 4.31173072,20.4286374 C4.04164319,20.811991 4.05953605,21.0260088 3.85870244,21.5809266 C3.77356473,21.8161683 3.52495652,23.2999754 3.52495652,23.7203387 C3.52495652,24.0060982 3.55887295,24.3139896 3.62203445,24.6357562 C4.03308499,26.7297898 5.68275607,29.4114804 7.28347908,30.4050445 C7.86196124,30.7641067 8.80807106,30.2980726 9.3555674,30.2980726 C9.3555674,30.2980726 10.6313565,27.3035549 10.6313565,24.4860181 Z" id="bezier9" fill="#F5D3C1" transform="translate(7.078157, 24.959644) rotate(-7.000000) translate(-7.078157, -24.959644) "></path>
                            <path d="M52.9492865,24.9199657 C53.0438091,24.7666468 53.6029516,22.6599614 53.5961903,22.4372535 C53.5489538,20.8813528 52.2249425,19.9129912 50.1515884,19.9129912 C47.5158457,19.9129912 46.0408881,22.4216272 46.0408881,24.8737013 C46.0408881,27.3226989 43.8553403,29.2160088 46.491083,29.2160088 C46.491083,29.2160088 51.6139027,27.0860022 52.9492865,24.9199657 Z" id="bezier10" fill="#F5D3C1" transform="translate(49.393298, 24.564500) rotate(-4.000000) translate(-49.393298, -24.564500) "></path>
                            <path d="M36.5427018,44.0078831 C37.068441,43.5468375 37.7303589,43.0525516 37.9814337,42.8567683 C38.2718892,42.6302767 42.4360376,38.5093596 43.4725032,36.489401 C44.6380999,34.21778 45.8399635,31.7772003 46.4181989,29.4993019 C46.65172,28.5793698 47.0417522,27.6859702 47.0417522,26.8409474 C47.0417522,16.2623509 41.5962475,8.71133333 28.2033254,8.71133333 C14.8104034,8.71133333 7.62088577,17.3536111 8.82878617,27.8655088 C9.11143683,30.3253099 10.3426582,32.7426769 11.4467693,35.0334579 C12.644844,37.5191922 14.9533566,39.8558777 16.8923678,41.9359976 C17.7456968,42.8514263 18.6486575,43.3909431 19.0949843,43.7851605 C19.5374345,44.175954 24.2652263,46.5099649 28.2033254,46.5099649 C32.0716865,46.5099649 36.1332984,44.3669082 36.5427018,44.0078831 Z" id="bezier11" fill="#F6D3C1"></path>
                            <path d="M16.7331227,22.4565422 C14.8285076,22.4565422 13.284,26.0965557 13.284,24.503623 C13.284,22.9141049 14.8285076,21.6233684 16.7331227,21.6233684 C18.6377378,21.6233684 20.3904,22.9141049 20.3904,24.503623 C20.3904,26.0965557 18.6377378,22.4565422 16.7331227,22.4565422 Z" id="bezier12" fill-opacity="0.38" fill="#1A1718"></path>
                            <path d="M41.162688,24.6521844 C41.162688,26.2451171 39.5710946,22.6051036 37.6084155,22.6051036 C35.6457364,22.6051036 34.056288,26.2451171 34.056288,24.6521844 C34.056288,23.0626663 35.6457364,21.7719298 37.6084155,21.7719298 C39.5710946,21.7719298 41.162688,23.0626663 41.162688,24.6521844 L41.162688,24.6521844 L41.162688,24.6521844 Z" id="bezier13" fill-opacity="0.38" fill="#1A1718"></path>
                            <path d="M17.1854673,20.752801 C20.2672298,20.752801 22.7877269,21.0518289 23.0033983,22.243402 C23.0111937,22.1892396 23.018989,22.1339248 23.018989,22.07861 C23.018989,20.8098266 20.4075461,19.7818932 17.1854673,19.7818932 C13.9659869,19.7818932 11.354544,20.8098266 11.354544,22.07861 C11.354544,22.1339248 11.3597409,22.1892396 11.3701347,22.243402 C11.5858061,21.0529813 14.1063032,20.752801 17.1854673,20.752801 L17.1854673,20.1126296 L17.1854673,20.752801 Z" id="bezier15" fill-opacity="0.3" fill="#1A1718"></path>
                            <path d="M38.0465183,20.6937149 C41.1282808,20.6937149 43.6487779,20.9927427 43.8644493,22.1843158 C43.8722446,22.1301534 43.88004,22.0748386 43.88004,22.0195238 C43.88004,20.7507405 41.2685971,19.722807 38.0465183,19.722807 C34.8270379,19.722807 32.215595,20.7507405 32.215595,22.0195238 C32.215595,22.0748386 32.2207919,22.1301534 32.2311857,22.1843158 C32.4468571,20.9938951 34.9673542,20.6937149 38.0465183,20.6937149 L38.0465183,20.0535434 L38.0465183,20.6937149 Z" id="bezier15" fill-opacity="0.3" fill="#1A1718"></path>
                            <path d="M5.43517546,14.1015291 L8.7498339,26.3526402 C8.7498339,26.3526402 8.5941629,22.757366 9.81237466,19.8470173 C10.0067183,19.3827239 11.1761016,17.4437183 11.9447607,16.2939105 C12.2198577,15.8824035 13.4969721,14.4096502 13.6951082,14.3870858 C19.5202972,13.7236947 37.2967766,13.0854051 42.2609476,14.1225326 C43.0408777,14.2854776 43.2148134,14.7262853 43.8137949,15.3492266 C44.482733,16.0449229 44.7218355,16.967781 45.1269401,17.9844607 C46.5663386,21.5968794 46.8294785,26.3937869 46.8294785,26.3937869 L51.342179,14.1015291 L5.43517546,14.1015291 Z" id="bezier17" fill="#9B9B9B"></path>
                            <path d="M51.4395555,14.2177913 C51.4395555,11.0067334 50.8458856,8.77295405 47.6372788,6.42363436 C47.2495088,6.13959776 48.9501211,2.82262796 48.5268688,2.55784807 C48.1669777,2.33398872 45.6857565,5.15509801 45.300521,4.94327411 C45.1155065,4.84217633 44.9254232,4.74107856 44.7353398,4.64479497 C44.0307643,4.2813244 44.8316487,0.331289968 44.0561087,0.0159611985 C43.379412,-0.258447044 41.1338942,3.09944329 40.4065086,2.86354848 C36.8886996,1.73221626 32.8310539,1.08470909 28.5072916,1.08470909 C15.3636623,1.08470909 5.93299423,6.81599001 5.532552,14.2683402 C5.532552,14.2683402 51.4395555,14.4681286 51.4395555,14.2177913 Z" id="bezier16" fill="#4A4A4A"></path>
                            <path id="bezier18" fill="#2C2723" d="M27.809352,65.624713 L27.809352,69.1825025 L28.309352,69.1825025 L28.309352,65.624713 L27.809352,65.624713 L27.809352,65.624713 Z"></path>
                            <path d="M27.5176727,29.6463654 C28.7335607,29.6463654 29.7475831,30.3529452 29.977616,31.2899314 C30.0104778,31.1555276 30.029256,31.0211239 30.029256,30.8790399 C30.029256,29.7462082 28.907259,28.8284226 27.5176727,28.8284226 C26.132781,28.8284226 25.010784,29.7462082 25.010784,30.8790399 C25.010784,31.0211239 25.0295622,31.1555276 25.062424,31.2899314 C25.2924569,30.3529452 26.3064793,29.6463654 27.5176727,29.6463654 L27.5176727,29.6463654 L27.5176727,29.6463654 Z" id="bezier19" fill-opacity="0.3" fill="#1A1718"></path>
                            <path d="M40.570488,35.6163158 C41.270976,35.6163158 41.836104,35.186 41.836104,34.6583509 C41.836104,34.1281404 41.270976,33.700386 40.570488,33.700386 C39.87,33.700386 39.304872,34.1281404 39.304872,34.6583509 C39.304872,35.186 39.87,35.6163158 40.570488,35.6163158 L40.570488,35.6163158 Z" id="bezier20" fill-opacity="0.300000012" fill="#F6AC2C"></path>
                            <path d="M41.875632,36.8655489 C42.176808,36.8655489 42.420456,36.6811278 42.420456,36.4557243 C42.420456,36.2277594 42.176808,36.0458997 41.875632,36.0458997 C41.57784,36.0458997 41.334192,36.2277594 41.334192,36.4557243 C41.334192,36.6811278 41.57784,36.8655489 41.875632,36.8655489 L41.875632,36.8655489 Z" id="bezier21" fill-opacity="0.300000012" fill="#F6AC2C"></path>
                            <path d="M40.56372,37.9907368 C40.963032,37.9907368 41.287896,37.7448421 41.287896,37.4425965 C41.287896,37.1403509 40.963032,36.8970175 40.56372,36.8970175 C40.164408,36.8970175 39.839544,37.1403509 39.839544,37.4425965 C39.839544,37.7448421 40.164408,37.9907368 40.56372,37.9907368 L40.56372,37.9907368 Z" id="bezier22" fill-opacity="0.300000012" fill="#F6AC2C"></path>
                            <path id="bezier23" fill-opacity="0.5" fill="#F6AC2C" d="M43.3973356,36.2662494 C43.5375225,36.2662494 43.649672,36.1540998 43.649672,36.0185858 C43.649672,35.8783989 43.5375225,35.7662494 43.3973356,35.7662494 C43.2618215,35.7662494 43.149672,35.8783989 43.149672,36.0185858 C43.149672,36.1540998 43.2618215,36.2662494 43.3973356,36.2662494 L43.3973356,36.2662494 Z"></path>
                            <path d="M14.666832,35.8724561 C15.36732,35.8724561 15.932448,35.4421404 15.932448,34.9144912 C15.932448,34.3842807 15.36732,33.9565263 14.666832,33.9565263 C13.969728,33.9565263 13.401216,34.3842807 13.401216,34.9144912 C13.401216,35.4421404 13.969728,35.8724561 14.666832,35.8724561 L14.666832,35.8724561 Z" id="bezier24" fill-opacity="0.300000012" fill="#F6AC2C"></path>
                            <path d="M13.54176,37.0439323 C13.839552,37.0439323 14.0832,36.8595113 14.0832,36.6341078 C14.0832,36.4061429 13.839552,36.2242832 13.54176,36.2242832 C13.240584,36.2242832 12.996936,36.4061429 12.996936,36.6341078 C12.996936,36.8595113 13.240584,37.0439323 13.54176,37.0439323 L13.54176,37.0439323 Z" id="bezier25" fill-opacity="0.300000012" fill="#F6AC2C"></path>
                            <path d="M15.44616,38.052485 C15.845472,38.052485 16.166952,37.8065902 16.166952,37.5043446 C16.166952,37.202099 15.845472,36.9587657 15.44616,36.9587657 C15.046848,36.9587657 14.721984,37.202099 14.721984,37.5043446 C14.721984,37.8065902 15.046848,38.052485 15.44616,38.052485 L15.44616,38.052485 Z" id="bezier26" fill-opacity="0.300000012" fill="#F6AC2C"></path>
                            <path id="bezier27" fill-opacity="0.5" fill="#F6AC2C" d="M13.1978644,36.0261178 C13.3333785,36.0261178 13.445528,35.9139683 13.445528,35.7784542 C13.445528,35.6382673 13.3333785,35.5261178 13.1978644,35.5261178 C13.0576775,35.5261178 12.945528,35.6382673 12.945528,35.7784542 C12.945528,35.9139683 13.0576775,36.0261178 13.1978644,36.0261178 L13.1978644,36.0261178 Z"></path>
                            <path d="M10.266696,73 C11.16684,73 11.8944,72.5722456 11.8944,72.0420351 C11.8944,71.514386 11.16684,71.0840702 10.266696,71.0840702 C9.366552,71.0840702 8.638992,71.514386 8.638992,72.0420351 C8.638992,72.5722456 9.366552,73 10.266696,73 L10.266696,73 Z" id="bezier32" fill="#2C2723"></path>
                            <path d="M12.080016,73 C12.98016,73 13.70772,72.5722456 13.70772,72.0420351 C13.70772,71.514386 12.98016,71.0840702 12.080016,71.0840702 C11.179872,71.0840702 10.452312,71.514386 10.452312,72.0420351 C10.452312,72.5722456 11.179872,73 12.080016,73 L12.080016,73 Z" id="bezier33" fill="#2C2723"></path>
                            <path d="M14.827248,73 C15.727392,73 16.454952,72.5722456 16.454952,72.0420351 C16.454952,71.514386 15.727392,71.0840702 14.827248,71.0840702 C13.930488,71.0840702 13.199544,71.514386 13.199544,72.0420351 C13.199544,72.5722456 13.930488,73 14.827248,73 L14.827248,73 Z" id="bezier34" fill="#2C2723"></path>
                            <path d="M17.361864,73 C18.258624,73 18.989568,72.5722456 18.989568,72.0420351 C18.989568,71.514386 18.258624,71.0840702 17.361864,71.0840702 C16.46172,71.0840702 15.73416,71.514386 15.73416,72.0420351 C15.73416,72.5722456 16.46172,73 17.361864,73 L17.361864,73 Z" id="bezier35" fill="#2C2723"></path>
                            <path d="M20.039184,73 C20.939328,73 21.666888,72.5722456 21.666888,72.0420351 C21.666888,71.514386 20.939328,71.0840702 20.039184,71.0840702 C19.13904,71.0840702 18.41148,71.514386 18.41148,72.0420351 C18.41148,72.5722456 19.13904,73 20.039184,73 L20.039184,73 Z" id="bezier36" fill="#2C2723"></path>
                            <path d="M22.786416,73 C23.68656,73 24.41412,72.5722456 24.41412,72.0420351 C24.41412,71.514386 23.68656,71.0840702 22.786416,71.0840702 C21.886272,71.0840702 21.158712,71.514386 21.158712,72.0420351 C21.158712,72.5722456 21.886272,73 22.786416,73 L22.786416,73 Z" id="bezier37" fill="#2C2723"></path>
                            <path d="M25.749648,73 C26.649792,73 27.377352,72.5722456 27.377352,72.0420351 C27.377352,71.514386 26.649792,71.0840702 25.749648,71.0840702 C24.852888,71.0840702 24.121944,71.514386 24.121944,72.0420351 C24.121944,72.5722456 24.852888,73 25.749648,73 L25.749648,73 Z" id="bezier38" fill="#2C2723"></path>
                            <path d="M29.367144,73 C30.267288,73 30.994848,72.5722456 30.994848,72.0420351 C30.994848,71.514386 30.267288,71.0840702 29.367144,71.0840702 C28.470384,71.0840702 27.73944,71.514386 27.73944,72.0420351 C27.73944,72.5722456 28.470384,73 29.367144,73 L29.367144,73 Z" id="bezier39" fill="#2C2723"></path>
                            <path d="M31.03776,73 C31.93452,73 32.665464,72.5722456 32.665464,72.0420351 C32.665464,71.514386 31.93452,71.0840702 31.03776,71.0840702 C30.137616,71.0840702 29.410056,71.514386 29.410056,72.0420351 C29.410056,72.5722456 30.137616,73 31.03776,73 L31.03776,73 Z" id="bezier40" fill="#2C2723"></path>
                            <path d="M33.568992,73 C34.469136,73 35.196696,72.5722456 35.196696,72.0420351 C35.196696,71.514386 34.469136,71.0840702 33.568992,71.0840702 C32.668848,71.0840702 31.941288,71.514386 31.941288,72.0420351 C31.941288,72.5722456 32.668848,73 33.568992,73 L33.568992,73 Z" id="bezier41" fill="#2C2723"></path>
                            <path d="M36.462312,73 C37.362456,73 38.090016,72.5722456 38.090016,72.0420351 C38.090016,71.514386 37.362456,71.0840702 36.462312,71.0840702 C35.562168,71.0840702 34.834608,71.514386 34.834608,72.0420351 C34.834608,72.5722456 35.562168,73 36.462312,73 L36.462312,73 Z" id="bezier42" fill="#2C2723"></path>
                            <path d="M38.993544,73 C39.893688,73 40.621248,72.5722456 40.621248,72.0420351 C40.621248,71.514386 39.893688,71.0840702 38.993544,71.0840702 C38.096784,71.0840702 37.36584,71.514386 37.36584,72.0420351 C37.36584,72.5722456 38.096784,73 38.993544,73 L38.993544,73 Z" id="bezier43" fill="#2C2723"></path>
                            <path d="M41.52816,73 C42.42492,73 43.155864,72.5722456 43.155864,72.0420351 C43.155864,71.514386 42.42492,71.0840702 41.52816,71.0840702 C40.628016,71.0840702 39.900456,71.514386 39.900456,72.0420351 C39.900456,72.5722456 40.628016,73 41.52816,73 L41.52816,73 Z" id="bezier44" fill="#2C2723"></path>
                            <path d="M44.42148,73 C45.31824,73 46.049184,72.5722456 46.049184,72.0420351 C46.049184,71.514386 45.31824,71.0840702 44.42148,71.0840702 C43.521336,71.0840702 42.793776,71.514386 42.793776,72.0420351 C42.793776,72.5722456 43.521336,73 44.42148,73 L44.42148,73 Z" id="bezier45" fill="#2C2723"></path>
                            <path d="M46.9527103,72.7827381 C47.8528543,72.7827381 48.5804143,72.3549837 48.5804143,71.8247732 C48.5804143,71.2971241 47.8528543,70.8668083 46.9527103,70.8668083 C46.0525663,70.8668083 45.3250063,71.2971241 45.3250063,71.8247732 C45.3250063,72.3549837 46.0525663,72.7827381 46.9527103,72.7827381 L46.9527103,72.7827381 Z" id="bezier46" fill="#2C2723"></path>
                            <path d="M36.469008,30.2952839 C36.469008,29.7669577 33.0014561,29.3383158 27.2593608,29.3383158 C21.5196373,29.3383158 19.0008,29.7669577 19.0008,30.2952839 C19.0008,30.8256037 21.5196373,31.2542456 27.2593608,31.2542456 C33.0014561,31.2542456 36.469008,30.8256037 36.469008,30.2952839 Z" id="bezier48" fill-opacity="0.05" fill="#1A1718"></path>
                            <path d="M18.033984,67.9139674 C11.238912,67.9139674 8.541144,69.6275464 8.541144,71.7432657 L27.95544,71.7432657 C27.95544,69.6275464 23.745672,67.9139674 16.953984,67.9139674 L18.033984,67.9139674 Z" id="bezier49" fill="#FFFFFF"></path>
                            <path d="M38.4160753,68.1312293 C31.884706,68.1312293 27.83304,69.6275464 27.83304,71.7432657 L48.5804143,71.7432657 C48.5804143,69.6275464 44.9474445,68.1312293 38.4160753,68.1312293 L38.4160753,67.9139674 L38.4160753,68.1312293 Z" id="bezier50" fill="#FFFFFF"></path>
                        </g>
                        <path d="M32.9976,36.6154115 C32.9976,37.6696797 30.7284092,38.5274424 27.9216,38.5274424 C25.1147908,38.5274424 22.8456,37.6681201 22.8456,36.6154115 C22.8456,35.5533453 25.1147908,34.6955827 27.9216,34.6955827 C30.7284092,34.6955827 32.9976,35.5533453 32.9976,36.6154115 L32.9976,36.6154115 L32.9976,36.6154115 Z" id="bezier52" stroke="#A48677" stroke-width="3"></path>
                        <path d="M20.736,33.3725263 L20.736,37.204386 L34.56,37.204386 L34.56,33.3725263 L20.736,33.3725263 L20.736,33.3725263 Z" id="bezier53" fill="#F5D3C1"></path>
                    </g>
                </g>
            </g>
            <path d="M27.433378,59.3020612 L25.2671319,59.3020612 L24.7000272,60.4150669 L24.6027166,60.3654847 L23.839667,60.9817016 L23.8896877,60.0021783 L23.792975,59.9529007 L23.903257,59.7364599 L23.903299,59.7356388 L23.9035978,59.7357911 L24.1245943,59.3020612 L22.2624,59.3020612 L22.2624,58.0143395 L24.7807212,58.0143395 L25.940305,55.7385282 L25.9473001,55.7420923 C26.058894,55.5346985 26.3461316,55.4683881 26.5936599,55.59451 C26.8441354,55.7221337 26.9591003,55.998471 26.8504411,56.2117267 C26.8387043,56.2347615 26.8248385,56.2561181 26.8091249,56.2757294 L25.9232589,58.0143395 L28.7718111,58.0143395 C28.8546053,57.9359633 28.9351572,57.8600591 29.0128076,57.7872971 C28.7121348,57.2319889 28.4139446,56.6467361 28.1895663,56.1302053 C27.4966391,54.5350499 27.2313275,53.5908468 27.4577536,53.4804114 C27.6841798,53.369976 28.2382255,54.1113038 29.0952709,55.6884637 C29.3267839,56.1145006 29.5604687,56.6033008 29.7782585,57.0898679 C30.5851742,56.3789768 30.9632876,56.1302922 31.0291797,56.088658 L31.0122735,56.0786458 L32.3678701,54.8514448 C32.3678701,54.8514448 32.3766805,54.5578518 32.2020722,54.274001 C32.0274639,53.9901503 32.0853742,53.9420715 31.7306265,53.8155145 C31.3758788,53.6889575 29.9488436,53.4845571 29.9488436,53.4845571 C29.9488436,53.4845571 30.8693244,53.1479156 31.7958483,53.2376286 C32.2831184,53.2848097 32.4082524,53.3295788 32.5582016,53.3723184 C32.6933746,53.4108464 32.8608763,53.4784934 33.1759418,53.6179371 C33.8405139,53.9120675 34.2167801,54.3446476 34.2167801,54.3446476 C34.2167801,54.3446476 34.2997058,54.6405998 34.5867615,54.8289776 C34.8738173,55.0173554 35.2495276,55.0223789 35.2495276,55.0223789 L35.6846486,55.2570153 L34.9596025,55.8664062 L34.6171288,55.6006176 C34.6171288,55.6006176 34.4237581,55.2707285 34.0940042,55.0909439 C33.7642502,54.9111592 33.7569801,54.9450141 33.5000524,54.9563827 C33.2431246,54.9677514 32.7943417,55.1484518 32.7943417,55.1484518 L31.6544626,56.4589657 L31.2146088,56.1984737 L31.5785116,56.4406783 C31.5785116,56.4406783 30.9386701,57.3924459 30.4717702,58.0143395 L33.1972072,58.0143395 L33.1972072,59.3020612 L30.6889316,59.3020612 C30.7843735,59.5524314 30.8391249,59.702909 30.8391249,59.702909 L30.2793686,59.9759203 C30.2793686,59.9759203 30.1158785,59.7125151 29.8730165,59.3020612 L29.4143587,59.3020612 C28.5379181,60.3591111 27.289585,61.8731725 27.289585,61.8731725 L25.7571112,60.9479745 C25.7571112,60.9479745 26.5404329,60.171003 27.433378,59.3020612 Z M31.218359,61.2532504 C31.6116801,61.0594474 32.0241495,60.4032665 32.0241495,60.4032665 L30.8944453,59.9333338 L30.3635102,60.1922882 L30.0524685,61.3649196 C30.0524685,61.3649196 30.8250379,61.4470534 31.218359,61.2532504 Z" id="Combined-Shape" fill="#FFFFFF"></path>
        </g>
    </g>
</svg>