<?xml version="1.0" encoding="UTF-8" standalone="no"?>
<svg width="282px" height="336px" viewBox="0 0 282 336" version="1.1" xmlns="http://www.w3.org/2000/svg" xmlns:xlink="http://www.w3.org/1999/xlink">
    <!-- Generator: Sketch 3.6.1 (26313) - http://www.bohemiancoding.com/sketch -->
    <title>me2 2</title>
    <desc>Created with Sketch.</desc>
    <defs></defs>
    <g id="Page-1" stroke="none" stroke-width="1" fill="none" fill-rule="evenodd">
        <g id="me2">
            <g id="Page-1">
                <g id="me2">
                    <g id="Page-1">
                        <g id="me">
                            <g id="group" transform="translate(49.000000, 30.319490)">
                                <g id="page1">
                                    <g id="layer_1">
                                        <g id="layer_1_1_">
                                            <path d="M51.2794296,193.256436 C59.8618071,196.449106 61.5456914,213.021688 55.0351898,230.280616 C48.532448,247.539544 36.2951881,258.945243 27.7205704,255.752573 C19.1381929,252.559903 17.4543086,235.97961 23.9648102,218.728393 C30.467552,201.469465 42.7048119,190.063766 51.2794296,193.256436 L51.2794296,193.256436 L51.2794296,193.256436 L51.2794296,193.256436 Z" id="bezier2" fill="#F5D3C1"></path>
                                            <path d="M31.4121423,292.488012 L150.047567,292.488012 L147.486386,270.870498 L39.192733,270.870498 L36.4121423,292.488012 L31.4121423,292.488012 L31.4121423,292.488012 Z" id="bezier" fill="#4A4A4A"></path>
                                            <path d="M32.7802392,247.317826 C30.7257244,245.714003 30.6523489,239.342058 32.4989663,232.608892 C32.291069,233.157947 32.0954009,233.721453 31.9119621,234.299407 C29.5394868,241.639426 29.4294235,249.008343 31.6673771,250.756654 C33.9175598,252.504965 37.6352533,247.968025 40.0077286,240.628006 C40.1911674,240.035603 40.3623771,239.457649 40.5213573,238.879694 C38.1611112,245.208294 34.8347539,248.921649 32.7802392,247.317826 L32.7802392,247.317826 L32.7802392,247.317826 L32.7802392,247.317826 L32.7802392,247.317826 Z" id="bezier3" fill-opacity="0.3" fill="#1A1718" transform="translate(35.289780, 241.870117) rotate(-20.000000) translate(-35.289780, -241.870117) "></path>
                                            <path d="M136.116497,194.248438 C127.093998,197.339754 125.32376,213.386221 132.168134,230.097247 C139.004349,246.808272 151.869161,257.851887 160.883503,254.760571 C169.906002,251.669255 171.67624,235.61532 164.831866,218.911762 C157.995651,202.200736 145.130839,191.157122 136.116497,194.248438 L136.116497,194.248438 L136.116497,194.248438 L136.116497,194.248438 Z" id="bezier4" fill="#F5D3C1"></path>
                                            <path d="M150.749174,247.946261 C148.082414,247.946261 145.896813,243.286759 145.56245,237.244256 C145.529829,237.764041 145.513518,238.293108 145.513518,238.831457 C145.513518,245.625791 147.854068,251.129944 150.741018,251.129944 C153.627969,251.129944 155.976673,245.625791 155.976673,238.831457 C155.976673,238.293108 155.952208,237.764041 155.919587,237.244256 C155.593378,243.277476 153.399622,247.946261 150.749174,247.946261 L150.749174,247.946261 L150.749174,247.946261 L150.749174,247.946261 L150.749174,247.946261 Z" id="bezier5" fill-opacity="0.3" fill="#1A1718"></path>
                                            <path d="M131.418406,176.507235 L127.428543,175.571924 C127.428543,175.571924 105.613215,173.734379 93.5346645,173.734379 C80.927176,173.734379 55.7121985,177.409469 55.7121985,177.409469 L51.2931664,176.795225 L40.9971062,178.211901 L25.0088889,202.791734 L43.8577202,213.628783 L37.6669963,276.405933 L148.817014,276.405933 L143.02567,213.856279 L159.292783,201.757665 L139.376327,178.211901 L131.418406,176.507235 L131.418406,176.507235 Z" id="bezier6" fill="#6699FF"></path>
                                            <path d="M87.9760194,218.445786 C100.254192,218.445786 110.208804,209.639497 110.208804,198.775159 C110.208804,187.910819 100.254192,179.10453 87.9760194,179.10453 C75.7100776,179.10453 65.7554641,187.910819 65.7554641,198.775159 C65.7554641,209.639497 75.7100776,218.445786 87.9760194,218.445786 L87.9760194,218.445786 L87.9760194,218.445786 L87.9760194,218.445786 Z" id="bezier7" fill="#FFFFFF"></path>
                                            <path d="M87.9393317,214.903773 C98.0284667,214.903773 106.197609,208.144702 106.197609,199.815015 C106.197609,191.485328 98.0284667,184.737089 87.9393317,184.737089 C77.8501966,184.737089 69.6810549,191.485328 69.6810549,199.815015 C69.6810549,208.144702 77.8501966,214.903773 87.9393317,214.903773 L87.9393317,214.903773 L87.9393317,214.903773 L87.9393317,214.903773 Z" id="bezier8" fill="#D9BAAC"></path>
                                            <path d="M29.272405,103.548196 C29.272405,95.3973184 26.2500395,87.306935 21.6162785,83.6293281 C19.4678731,81.9242356 16.8819881,81.9485206 14.2544385,81.9485206 C10.8697273,81.9485206 7.71462462,84.2634561 6.4342511,86.3900593 C5.45819641,88.011212 5.52285843,88.9162655 4.79707666,91.2629411 C4.48940214,92.2577472 3.59097041,98.5325751 3.59097041,100.310237 C3.59097041,101.518677 3.71353915,102.82071 3.94179504,104.18142 C5.42726831,113.036816 11.3889255,124.377338 17.1736918,128.578992 C19.2642372,130.097419 22.6833322,128.126621 24.6618997,128.126621 C24.6618997,128.126621 29.272405,115.463194 29.272405,103.548196 L29.272405,103.548196 L29.272405,103.548196 Z" id="bezier9" fill="#F5D3C1" transform="translate(16.431688, 105.551098) rotate(-7.000000) translate(-16.431688, -105.551098) "></path>
                                            <path d="M182.202883,105.383304 C182.544473,104.734939 184.565128,95.8260388 184.540694,94.8842364 C184.369988,88.3045343 179.585216,84.2094585 172.092434,84.2094585 C162.567265,84.2094585 157.236996,94.8181546 157.236996,105.187658 C157.236996,115.544151 149.338763,123.550714 158.863931,123.550714 C158.863931,123.550714 177.377012,114.543192 182.202883,105.383304 L182.202883,105.383304 L182.202883,105.383304 Z" id="bezier10" fill="#F5D3C1" transform="translate(169.352088, 103.880086) rotate(-4.000000) translate(-169.352088, -103.880086) "></path>
                                            <path d="M122.912014,186.103633 C124.811955,184.153931 127.204024,182.06366 128.11137,181.235718 C129.161031,180.277914 144.209622,162.851089 147.955249,154.308946 C152.167536,144.702556 156.510885,134.381661 158.600539,124.748724 C159.444448,120.85845 160.853965,117.080379 160.853965,113.506887 C160.853965,68.7713737 141.17475,36.8390994 92.774793,36.8390994 C44.3748365,36.8390994 18.3930275,73.3861718 22.7581935,117.839624 C23.7796494,128.241805 28.2290938,138.464536 32.219181,148.151952 C36.5488385,158.6638 44.8914474,168.545341 51.8987351,177.341897 C54.9825347,181.213127 58.2456953,183.494673 59.8586517,185.161768 C61.4575985,186.814382 78.5431099,196.684612 92.774793,196.684612 C106.754454,196.684612 121.432494,187.621903 122.912014,186.103633 L122.912014,186.103633 L122.912014,186.103633 Z" id="bezier11" fill="#F6D3C1"></path>
                                            <path d="M51.3232476,94.965806 C44.4402621,94.965806 38.8586498,110.358951 38.8586498,103.622645 C38.8586498,96.9007793 44.4402621,91.4424219 51.3232476,91.4424219 C58.2062332,91.4424219 64.5400844,96.9007793 64.5400844,103.622645 C64.5400844,110.358951 58.2062332,94.965806 51.3232476,94.965806 L51.3232476,94.965806 L51.3232476,94.965806 Z" id="bezier12" fill-opacity="0.38" fill="#1A1718"></path>
                                            <path d="M139.607932,104.250892 C139.607932,110.987198 133.856159,95.5940534 126.76334,95.5940534 C119.670519,95.5940534 113.926498,110.987198 113.926498,104.250892 C113.926498,97.5290258 119.670519,92.0706686 126.76334,92.0706686 C133.856159,92.0706686 139.607932,97.5290258 139.607932,104.250892 L139.607932,104.250892 L139.607932,104.250892 L139.607932,104.250892 L139.607932,104.250892 Z" id="bezier13" fill-opacity="0.38" fill="#1A1718"></path>
                                            <path d="M52.9579514,87.7609054 C64.0949661,87.7609054 73.2036547,89.0254554 73.9830573,94.0644636 C74.0112289,93.8354173 74.0394004,93.6014987 74.0394004,93.3675793 C74.0394004,88.0020593 64.6020478,83.655062 52.9579514,83.655062 C41.3232454,83.655062 31.8858931,88.0020593 31.8858931,93.3675793 C31.8858931,93.6014987 31.9046739,93.8354173 31.9422355,94.0644636 C32.7216387,89.0303288 41.830327,87.7609054 52.9579514,87.7609054 L52.9579514,85.0537035 L52.9579514,87.7609054 L52.9579514,87.7609054 L52.9579514,87.7609054 Z" id="bezier15" fill-opacity="0.3" fill="#1A1718"></path>
                                            <path d="M128.346575,87.5110376 C139.48359,87.5110376 148.592278,88.7755876 149.371681,93.814596 C149.399853,93.5855498 149.428024,93.3516303 149.428024,93.1177118 C149.428024,87.7521914 139.990672,83.4051942 128.346575,83.4051942 C116.71187,83.4051942 107.274517,87.7521914 107.274517,93.1177118 C107.274517,93.3516303 107.293298,93.5855498 107.330859,93.814596 C108.110263,88.7804609 117.218951,87.5110376 128.346575,87.5110376 L128.346575,84.8038357 L128.346575,87.5110376 L128.346575,87.5110376 L128.346575,87.5110376 Z" id="bezier15" fill-opacity="0.3" fill="#1A1718"></path>
                                            <path d="M10.4942073,59.6335386 L22.4728722,111.441899 C22.4728722,111.441899 21.9103011,96.2379502 26.3127308,83.9304634 C27.0150587,81.9670267 31.2410298,73.7672232 34.0188455,68.9048352 C35.0130035,67.1646254 39.628298,60.9365426 40.3443316,60.8411208 C61.395667,58.0357259 125.637124,55.3364818 143.576873,59.7223595 C146.395421,60.4114329 147.023998,62.2755515 149.188624,64.9098896 C151.606064,67.851899 152.470143,71.7545462 153.934129,76.053953 C159.135893,91.3304033 160.08684,111.615904 160.08684,111.615904 L176.395044,59.6335386 L10.4942073,59.6335386 L10.4942073,59.6335386 L10.4942073,59.6335386 Z" id="bezier17" fill="#9B9B9B"></path>
                                            <path d="M176.746948,60.1251962 C176.746948,46.5460488 174.601516,37.0996854 163.006106,27.164717 C161.604765,25.963563 167.750516,11.9365277 166.220947,10.8168079 C164.920356,9.87013573 155.953605,21.8002412 154.561423,20.9044654 C153.89281,20.476936 153.205877,20.0494066 152.518946,19.6422358 C149.972718,18.1051659 152.866991,1.40098233 150.064309,0.0674978394 C147.618831,-1.09293904 139.503876,13.1071438 136.875216,12.1095754 C124.162397,7.325318 109.498691,4.58709412 93.87328,4.58709412 C46.3742289,4.58709412 12.2932476,28.8239382 10.8461111,60.3389609 C10.8461111,60.3389609 176.746948,61.1838403 176.746948,60.1251962 L176.746948,60.1251962 L176.746948,60.1251962 Z" id="bezier16" fill="#4A4A4A"></path>
                                            <path d="M91.3510338,277.518405 L91.3510338,292.563835 L92.6595637,292.563835 L92.6595637,277.518405 L91.3510338,277.518405 L91.3510338,277.518405 L91.3510338,277.518405 L91.3510338,277.518405 Z" id="bezier18" fill="#2C2723"></path>
                                            <path d="M90.2969498,125.370636 C94.6909816,125.370636 98.3555022,128.358671 99.1868055,132.321063 C99.3055631,131.752688 99.3734245,131.184311 99.3734245,130.583457 C99.3734245,125.792858 95.3187007,121.911662 90.2969498,121.911662 C85.2921643,121.911662 81.2374405,125.792858 81.2374405,130.583457 C81.2374405,131.184311 81.3053019,131.752688 81.4240594,132.321063 C82.2553628,128.358671 85.9198834,125.370636 90.2969498,125.370636 L90.2969498,125.370636 L90.2969498,125.370636 L90.2969498,125.370636 L90.2969498,125.370636 Z" id="bezier19" fill-opacity="0.3" fill="#1A1718"></path>
                                            <path d="M137.467813,150.616783 C139.999268,150.616783 142.041554,148.797033 142.041554,146.565673 C142.041554,144.323481 139.999268,142.514563 137.467813,142.514563 C134.936357,142.514563 132.894072,144.323481 132.894072,146.565673 C132.894072,148.797033 134.936357,150.616783 137.467813,150.616783 L137.467813,150.616783 L137.467813,150.616783 L137.467813,150.616783 Z" id="bezier20" fill-opacity="0.300000012" fill="#F6AC2C"></path>
                                            <path d="M142.184403,155.899627 C143.272806,155.899627 144.153312,155.119734 144.153312,154.166533 C144.153312,153.202498 143.272806,152.433438 142.184403,152.433438 C141.108228,152.433438 140.227722,153.202498 140.227722,154.166533 C140.227722,155.119734 141.108228,155.899627 142.184403,155.899627 L142.184403,155.899627 L142.184403,155.899627 L142.184403,155.899627 Z" id="bezier21" fill-opacity="0.300000012" fill="#F6AC2C"></path>
                                            <path d="M137.443354,160.657902 C138.886407,160.657902 140.060415,159.618044 140.060415,158.339886 C140.060415,157.061729 138.886407,156.032704 137.443354,156.032704 C136.000302,156.032704 134.826294,157.061729 134.826294,158.339886 C134.826294,159.618044 136.000302,160.657902 137.443354,160.657902 L137.443354,160.657902 L137.443354,160.657902 L137.443354,160.657902 Z" id="bezier22" fill-opacity="0.300000012" fill="#F6AC2C"></path>
                                            <path d="M147.436737,152.40984 C147.803614,152.40984 148.097116,152.149875 148.097116,151.835751 C148.097116,151.510796 147.803614,151.250832 147.436737,151.250832 C147.082089,151.250832 146.788586,151.510796 146.788586,151.835751 C146.788586,152.149875 147.082089,152.40984 147.436737,152.40984 L147.436737,152.40984 L147.436737,152.40984 L147.436737,152.40984 Z" id="bezier23" fill-opacity="0.5" fill="#F6AC2C"></path>
                                            <path d="M43.8559916,151.699967 C46.3874473,151.699967 48.4297327,149.880217 48.4297327,147.648858 C48.4297327,145.406666 46.3874473,143.597748 43.8559916,143.597748 C41.3367651,143.597748 39.2822504,145.406666 39.2822504,147.648858 C39.2822504,149.880217 41.3367651,151.699967 43.8559916,151.699967 L43.8559916,151.699967 L43.8559916,151.699967 L43.8559916,151.699967 Z" id="bezier24" fill-opacity="0.300000012" fill="#F6AC2C"></path>
                                            <path d="M39.7901547,156.653988 C40.8663291,156.653988 41.7468354,155.874095 41.7468354,154.920893 C41.7468354,153.956859 40.8663291,153.187797 39.7901547,153.187797 C38.7017511,153.187797 37.8212447,153.956859 37.8212447,154.920893 C37.8212447,155.874095 38.7017511,156.653988 39.7901547,156.653988 L39.7901547,156.653988 L39.7901547,156.653988 L39.7901547,156.653988 Z" id="bezier25" fill-opacity="0.300000012" fill="#F6AC2C"></path>
                                            <path d="M46.6723629,160.919026 C48.1154149,160.919026 49.2771941,159.879169 49.2771941,158.601012 C49.2771941,157.322854 48.1154149,156.293829 46.6723629,156.293829 C45.2293108,156.293829 44.0553024,157.322854 44.0553024,158.601012 C44.0553024,159.879169 45.2293108,160.919026 46.6723629,160.919026 L46.6723629,160.919026 L46.6723629,160.919026 L46.6723629,160.919026 Z" id="bezier26" fill-opacity="0.300000012" fill="#F6AC2C"></path>
                                            <path d="M38.2958439,151.394354 C38.6504922,151.394354 38.9439943,151.13439 38.9439943,150.820266 C38.9439943,150.495311 38.6504922,150.235347 38.2958439,150.235347 C37.9289662,150.235347 37.6354641,150.495311 37.6354641,150.820266 C37.6354641,151.13439 37.9289662,151.394354 38.2958439,151.394354 L38.2958439,151.394354 L38.2958439,151.394354 L38.2958439,151.394354 Z" id="bezier27" fill-opacity="0.5" fill="#F6AC2C"></path>
                                            <path d="M34.5,304.720721 C36.9885655,304.720721 39,303.36908 39,301.693694 C39,300.0264 36.9885655,298.666667 34.5,298.666667 C32.0114345,298.666667 30,300.0264 30,301.693694 C30,303.36908 32.0114345,304.720721 34.5,304.720721 L34.5,304.720721 L34.5,304.720721 L34.5,304.720721 Z" id="bezier32" fill="#2C2723"></path>
                                            <path d="M39.5,304.720721 C41.9885655,304.720721 44,303.36908 44,301.693694 C44,300.0264 41.9885655,298.666667 39.5,298.666667 C37.0114345,298.666667 35,300.0264 35,301.693694 C35,303.36908 37.0114345,304.720721 39.5,304.720721 L39.5,304.720721 L39.5,304.720721 L39.5,304.720721 Z" id="bezier33" fill="#2C2723"></path>
                                            <path d="M47.5,304.720721 C49.9885655,304.720721 52,303.36908 52,301.693694 C52,300.0264 49.9885655,298.666667 47.5,298.666667 C45.02079,298.666667 43,300.0264 43,301.693694 C43,303.36908 45.02079,304.720721 47.5,304.720721 L47.5,304.720721 L47.5,304.720721 L47.5,304.720721 Z" id="bezier34" fill="#2C2723"></path>
                                            <path d="M54.5,304.720721 C56.97921,304.720721 59,303.36908 59,301.693694 C59,300.0264 56.97921,298.666667 54.5,298.666667 C52.0114345,298.666667 50,300.0264 50,301.693694 C50,303.36908 52.0114345,304.720721 54.5,304.720721 L54.5,304.720721 L54.5,304.720721 L54.5,304.720721 Z" id="bezier35" fill="#2C2723"></path>
                                            <path d="M62.4999999,304.720721 C64.9885653,304.720721 67,303.36908 67,301.693694 C67,300.0264 64.9885653,298.666667 62.4999999,298.666667 C60.0114345,298.666667 58,300.0264 58,301.693694 C58,303.36908 60.0114345,304.720721 62.4999999,304.720721 L62.4999999,304.720721 L62.4999999,304.720721 L62.4999999,304.720721 Z" id="bezier36" fill="#2C2723"></path>
                                            <path d="M70.5000003,304.720721 C72.9885656,304.720721 75,303.36908 75,301.693694 C75,300.0264 72.9885656,298.666667 70.5000003,298.666667 C68.0114344,298.666667 66,300.0264 66,301.693694 C66,303.36908 68.0114344,304.720721 70.5000003,304.720721 L70.5000003,304.720721 L70.5000003,304.720721 L70.5000003,304.720721 Z" id="bezier37" fill="#2C2723"></path>
                                            <path d="M79.4999997,304.720721 C81.9885656,304.720721 84,303.36908 84,301.693694 C84,300.0264 81.9885656,298.666667 79.4999997,298.666667 C77.0207901,298.666667 75,300.0264 75,301.693694 C75,303.36908 77.0207901,304.720721 79.4999997,304.720721 L79.4999997,304.720721 L79.4999997,304.720721 L79.4999997,304.720721 Z" id="bezier38" fill="#2C2723"></path>
                                            <path d="M103.5,304.720721 C105.988565,304.720721 108,303.36908 108,301.693694 C108,300.0264 105.988565,298.666667 103.5,298.666667 C101.02079,298.666667 99,300.0264 99,301.693694 C99,303.36908 101.02079,304.720721 103.5,304.720721 L103.5,304.720721 L103.5,304.720721 L103.5,304.720721 Z" id="bezier39" fill="#2C2723"></path>
                                            <path d="M107.5,304.720721 C109.97921,304.720721 112,303.36908 112,301.693694 C112,300.0264 109.97921,298.666667 107.5,298.666667 C105.011434,298.666667 103,300.0264 103,301.693694 C103,303.36908 105.011434,304.720721 107.5,304.720721 L107.5,304.720721 L107.5,304.720721 L107.5,304.720721 Z" id="bezier40" fill="#2C2723"></path>
                                            <path d="M115.5,304.720721 C117.988565,304.720721 120,303.36908 120,301.693694 C120,300.0264 117.988565,298.666667 115.5,298.666667 C113.011435,298.666667 111,300.0264 111,301.693694 C111,303.36908 113.011435,304.720721 115.5,304.720721 L115.5,304.720721 L115.5,304.720721 L115.5,304.720721 Z" id="bezier41" fill="#2C2723"></path>
                                            <path d="M123.5,304.720721 C125.988565,304.720721 128,303.36908 128,301.693694 C128,300.0264 125.988565,298.666667 123.5,298.666667 C121.011435,298.666667 119,300.0264 119,301.693694 C119,303.36908 121.011435,304.720721 123.5,304.720721 L123.5,304.720721 L123.5,304.720721 L123.5,304.720721 Z" id="bezier42" fill="#2C2723"></path>
                                            <path d="M130.5,304.720721 C132.988566,304.720721 135,303.36908 135,301.693694 C135,300.0264 132.988566,298.666667 130.5,298.666667 C128.02079,298.666667 126,300.0264 126,301.693694 C126,303.36908 128.02079,304.720721 130.5,304.720721 L130.5,304.720721 L130.5,304.720721 L130.5,304.720721 Z" id="bezier43" fill="#2C2723"></path>
                                            <path d="M138.5,304.720721 C140.97921,304.720721 143,303.36908 143,301.693694 C143,300.0264 140.97921,298.666667 138.5,298.666667 C136.011435,298.666667 134,300.0264 134,301.693694 C134,303.36908 136.011435,304.720721 138.5,304.720721 L138.5,304.720721 L138.5,304.720721 L138.5,304.720721 Z" id="bezier44" fill="#2C2723"></path>
                                            <path d="M146.5,304.720721 C148.97921,304.720721 151,303.36908 151,301.693694 C151,300.0264 148.97921,298.666667 146.5,298.666667 C144.011435,298.666667 142,300.0264 142,301.693694 C142,303.36908 144.011435,304.720721 146.5,304.720721 L146.5,304.720721 L146.5,304.720721 L146.5,304.720721 Z" id="bezier45" fill="#2C2723"></path>
                                            <path d="M153.5,304.720721 C155.988565,304.720721 158,303.36908 158,301.693694 C158,300.0264 155.988565,298.666667 153.5,298.666667 C151.011435,298.666667 149,300.0264 149,301.693694 C149,303.36908 151.011435,304.720721 153.5,304.720721 L153.5,304.720721 L153.5,304.720721 L153.5,304.720721 Z" id="bezier46" fill="#2C2723"></path>
                                            <path d="M122.645696,128.114829 C122.645696,125.880606 110.114498,124.067935 89.36345,124.067935 C68.6209741,124.067935 59.5182841,125.880606 59.5182841,128.114829 C59.5182841,130.357482 68.6209741,132.170153 89.36345,132.170153 C110.114498,132.170153 122.645696,130.357482 122.645696,128.114829 L122.645696,128.114829 L122.645696,128.114829 Z" id="bezier48" fill-opacity="0.05" fill="#1A1718"></path>
                                            <path d="M56.3818346,288.576577 C36.7816372,288.576577 29,294.446377 29,301.693694 L85,301.693694 C85,294.446377 72.857041,288.576577 53.2666045,288.576577 L56.3818346,288.576577 L56.3818346,288.576577 L56.3818346,288.576577 Z" id="bezier49" fill="#FFFFFF"></path>
                                            <path d="M129.60542,289.320799 C110.717143,289.320799 99,294.446377 99,301.693694 L159,301.693694 C159,294.446377 148.493697,289.320799 129.60542,289.320799 L129.60542,288.576577 L129.60542,289.320799 L129.60542,289.320799 L129.60542,289.320799 Z" id="bezier50" fill="#FFFFFF"></path>
                                        </g>
                                        <path d="M110.100563,154.841829 C110.100563,159.300192 101.900057,162.927559 91.756681,162.927559 C81.6133051,162.927559 73.4127991,159.293597 73.4127991,154.841829 C73.4127991,150.350489 81.6133051,146.723122 91.756681,146.723122 C101.900057,146.723122 110.100563,150.350489 110.100563,154.841829 L110.100563,154.841829 L110.100563,154.841829 L110.100563,154.841829 L110.100563,154.841829 Z" id="bezier52" stroke="#A48677" stroke-width="3"></path>
                                        <path d="M65.7890295,141.128088 L65.7890295,157.332525 L115.746835,157.332525 L115.746835,141.128088 L65.7890295,141.128088 L65.7890295,141.128088 L65.7890295,141.128088 L65.7890295,141.128088 Z" id="bezier53" fill="#F5D3C1"></path>
                                    </g>
                                </g>
                            </g>
                            <path d="M136.005238,281.10022 L125.99425,281.10022 L123.380848,285.812685 L122.910233,285.592373 L119.375782,288.203202 L119.597226,284.041428 L119.181533,283.846826 L119.652797,282.997046 L119.656468,282.928054 L119.683929,282.940909 L120.704724,281.10022 L112.066667,281.10022 L112.066667,275.654611 L123.724706,275.654611 L129.065134,266.024791 L129.120099,266.050522 C129.629322,265.165141 130.962912,264.88283 132.113505,265.421466 C133.273114,265.964323 133.807728,267.135474 133.307598,268.037305 C133.236584,268.165356 133.148526,268.281093 133.046378,268.383875 L129.014232,275.654611 L142.194832,275.654611 C142.576339,275.324382 142.947545,275.004542 143.305428,274.697902 C141.921255,272.35045 140.548964,269.876387 139.517095,267.692387 C136.32958,260.945853 135.11266,256.951041 136.160929,256.481295 C137.209198,256.01155 139.763508,259.144656 143.710172,265.813406 C144.776591,267.615353 145.852394,269.683149 146.854649,271.741561 C150.76833,268.59031 152.495637,267.594447 152.660154,267.50188 L152.584417,267.460819 L158.850448,262.277232 C158.850448,262.277232 158.88937,261.035292 158.079481,259.833501 C157.269592,258.63171 157.537301,258.428657 155.89471,257.891224 C154.252119,257.35379 147.64643,256.480837 147.64643,256.480837 C147.64643,256.480837 151.904342,255.062074 156.192913,255.446961 C158.448324,255.649379 159.027733,255.839491 159.721977,256.021164 C160.347808,256.184933 161.123442,256.472073 162.582463,257.06379 C165.659996,258.31191 167.404108,260.144042 167.404108,260.144042 C167.404108,260.144042 167.789761,261.396494 169.11946,262.195056 C170.449159,262.993619 172.187999,263.017049 172.187999,263.017049 L174.203244,264.012159 L170.851537,266.58587 L169.264871,265.459515 C169.264871,265.459515 168.367859,264.062857 166.840605,263.300399 C165.31335,262.53794 165.279917,262.681116 164.090913,262.727718 C162.901909,262.774321 160.826057,263.536139 160.826057,263.536139 L155.558905,269.073417 L152.886387,267.624529 L155.168933,269.016037 C155.168933,269.016037 152.225334,273.026401 150.071099,275.654611 L162.690774,275.654611 L162.690774,281.10022 L151.043258,281.10022 C151.481017,282.157023 151.732027,282.792058 151.732027,282.792058 L149.140563,283.953333 C149.140563,283.953333 148.386082,282.837967 147.26583,281.10022 L145.186146,281.10022 C141.139469,285.566773 135.369984,291.970959 135.369984,291.970959 L128.271907,288.044338 C128.271907,288.044338 131.88461,284.767197 136.005238,281.10022 L136.005238,281.10022 L136.005238,281.10022 Z M153.521611,289.351546 C155.342563,288.527229 157.256964,285.745195 157.256964,285.745195 L152.037669,283.766676 L149.579636,284.868158 L148.128811,289.83566 C148.128811,289.83566 151.700659,290.175862 153.521611,289.351546 L153.521611,289.351546 L153.521611,289.351546 Z" id="Combined-Shape" fill="#FFFFFF"></path>
                        </g>
                    </g>
                </g>
            </g>
        </g>
    </g>
</svg>