<?xml version="1.0" encoding="UTF-8" standalone="no"?>
<svg width="282px" height="383px" viewBox="0 0 282 383" version="1.1" xmlns="http://www.w3.org/2000/svg" xmlns:xlink="http://www.w3.org/1999/xlink">
    <!-- Generator: Sketch 3.6.1 (26313) - http://www.bohemiancoding.com/sketch -->
    <title>Slice 1</title>
    <desc>Created with Sketch.</desc>
    <defs></defs>
    <g id="Page-1" stroke="none" stroke-width="1" fill="none" fill-rule="evenodd">
        <g id="pencil" transform="translate(0.000000, 6.000000)">
            <circle id="oval2" fill="#F3F2F1" cx="141" cy="141" r="141"></circle>
            <path d="M171.748524,191.562711 C169.504428,185.955459 149.820503,137.078047 132.455208,104.154086 C114.010658,69.1838954 102.769427,52.3756742 99.1893134,54.1218124 C95.6091996,55.8679506 102.43733,76.1959449 118.134753,111.138638 C133.832176,146.081332 163.109573,196.409248 163.109573,196.409248 L163.136299,196.396213 L160.806042,219.249565 C160.806042,219.249565 174.147069,222.856089 180.3612,219.781898 C186.57533,216.707708 191.981073,204.044487 191.981073,204.044487 L171.748524,191.562711 Z" id="Combined-Shape" fill="#CC9966"></path>
            <rect id="Rectangle-6" fill="#99CCCC" x="28" y="160" width="172" height="28"></rect>
            <path d="M49.2990558,196.975696 L49.0997786,196.87416 L96.2702997,104.296799 C96.3603346,104.091593 96.456996,103.887394 96.5603584,103.684534 C98.9693738,98.9565751 104.106078,96.74604 108.033508,98.7471656 C111.890515,100.712409 113.146846,106.008773 110.908925,110.67624 L110.929373,110.686659 L63.366822,204.033422 L63.5384617,204.120877 L44.9616331,223 L49.2990558,196.975696 Z" id="Combined-Shape" fill="#996633"></path>
            <path d="M156.003056,56.427652 C156.003056,56.427652 178.491466,53.1864827 184.369224,54.0023109 C190.246983,54.8181391 189.548246,56.1565169 193.281818,61.3012152 C197.01539,66.4459136 197.99512,72.7781974 197.99512,72.7781974 L182.02466,106.285856 L193.238656,111 L205.610817,76.8601922 C205.610817,76.8601922 211.753741,70.5963113 215.619885,68.9815462 C219.486029,67.3667812 219.468213,66.6032079 225.167607,68.6919445 C230.867002,70.7806811 235.060704,76.8108244 235.060704,76.8108244 L241.279903,80.6728442 L250,63.7569434 L242.48931,61.0563488 C242.48931,61.0563488 236.75365,62.9542058 231.671329,60.4536005 C226.589008,57.9529953 224.204521,52.0598605 224.204521,52.0598605 C224.204521,52.0598605 216.838406,44.8075292 205.610816,42.0580071 C200.287952,40.7544919 197.482711,40.2003622 195.27983,40.0970556 C192.836146,39.9824562 190.762338,39.6919569 183.169313,41.2827668 C168.731493,44.3076255 156.003056,56.427652 156.003056,56.427652 Z" id="Path-6" fill="#FFFFFF" transform="translate(203.000000, 75.500000) rotate(-346.000000) translate(-203.000000, -75.500000) "></path>
            <path d="M151.607575,89 C151.607575,89 145.79393,98.8877773 133.290364,131.551116 C120.786797,164.214454 95,239.075513 95,239.075513 L124.048488,248 C124.048488,248 146.678417,161.436602 150.661626,146.917544 C154.644835,132.398486 162,92.8855723 162,92.8855723 L151.607575,89 Z" id="Path-7" fill="#4A4A4A" transform="translate(128.500000, 168.500000) rotate(-341.000000) translate(-128.500000, -168.500000) "></path>
            <ellipse id="oval3" fill="#E2E1E0" cx="141.5" cy="254" rx="29.5" ry="10"></ellipse>
        </g>
    </g>
</svg>