<?xml version="1.0" encoding="UTF-8" standalone="no"?>
<svg width="795px" height="376px" viewBox="0 0 795 376" version="1.1" xmlns="http://www.w3.org/2000/svg" xmlns:xlink="http://www.w3.org/1999/xlink">
    <!-- Generator: Sketch 3.6.1 (26313) - http://www.bohemiancoding.com/sketch -->
    <title>Slice 1</title>
    <desc>Created with Sketch.</desc>
    <defs></defs>
    <g id="Page-1" stroke="none" stroke-width="1" fill="none" fill-rule="evenodd">
        <g id="land"></g>
        <g id="land1" transform="translate(258.000000, 0.000000)">
            <g id="Page-1">
                <g id="Tools">
                    <g id="Page-1">
                        <g id="Artboard-4">
                            <g id="Group">
                                <path d="M240.216929,272.967928 C237.44876,266.049383 203.868536,182.494757 174.358148,126.511313 C143.55424,68.0739629 124.803216,39.9743865 118.867233,42.8695589 C112.93125,45.7647313 124.372069,79.7144021 150.614216,138.092003 C175.458204,193.359296 220.582632,271.694393 225.320487,279.884756 L221.499839,318.67832 C221.499839,318.67832 243.670915,324.762815 253.973992,319.665225 C264.277069,314.567636 273.189384,293.467644 273.189384,293.467644 L240.216929,272.967928 L240.216929,272.967928 L240.216929,272.967928 Z" id="Combined-Shape" fill="#CC9966"></path>
                                <rect id="Rectangle-6" fill="#99CCCC" x="0" y="218.666667" width="286.666667" height="47.4134621"></rect>
                                <path d="M35.1495491,278.846837 L35.1209709,278.832276 L114.184912,123.660555 L114.369022,123.754364 C118.435563,116.118421 126.861229,112.606441 133.339979,115.907529 C139.90644,119.253308 141.986324,128.330902 137.985531,136.182903 C137.553273,137.031255 137.06772,137.830592 136.537151,138.577381 L58.9066159,290.935884 L58.9312076,290.948415 L28,322.261545 L35.1495491,278.846837 L35.1495491,278.846837 L35.1495491,278.846837 Z" id="Combined-Shape" fill="#996633"></path>
                                <path d="M213.414729,45.8607035 C213.414729,45.8607035 251.010936,40.4518123 260.837395,41.8132733 C270.663853,43.1747344 269.4957,45.4082308 275.7375,53.9937475 C281.9793,62.5792643 283.617217,73.1466337 283.617217,73.1466337 L256.917744,129.064502 L275.665343,136.931505 L296.349167,79.9587017 C296.349167,79.9587017 306.618929,69.5054835 313.082363,66.8107497 C319.545796,64.116016 319.516012,62.8417584 329.04428,66.3274599 C338.572548,69.8131615 345.583595,79.8763163 345.583595,79.8763163 L355.980875,86.321288 L370.559164,58.0918877 L358.002765,53.5851123 C358.002765,53.5851123 348.413868,56.7522723 339.917225,52.5792408 C331.420584,48.4062093 327.434188,38.5716956 327.434188,38.5716956 C327.434188,38.5716956 315.119491,26.4689428 296.349165,21.8805168 C287.450381,19.7051995 282.760568,18.7804631 279.077785,18.6080641 C274.992424,18.4168197 271.525425,17.932032 258.831379,20.5867891 C234.694177,25.6346993 213.414729,45.8607035 213.414729,45.8607035 L213.414729,45.8607035 L213.414729,45.8607035 Z" id="Path-6" fill="#FFFFFF" transform="translate(291.986947, 77.688801) rotate(14.000000) translate(-291.986947, -77.688801) "></path>
                                <path d="M205.297833,100.121066 C205.297833,100.121066 195.654988,116.560234 174.915852,170.865476 C154.176716,225.170717 111.40525,349.632821 111.40525,349.632821 L159.586744,364.470448 C159.586744,364.470448 197.122048,220.552331 203.728828,196.413311 C210.335607,172.274292 222.535308,106.58112 222.535308,106.58112 L205.297833,100.121066 L205.297833,100.121066 L205.297833,100.121066 Z" id="Path-7" fill="#4A4A4A" transform="translate(166.970279, 232.295757) rotate(19.000000) translate(-166.970279, -232.295757) "></path>
                            </g>
                        </g>
                    </g>
                </g>
            </g>
        </g>
    </g>
</svg>